<?xml version="1.0" encoding="UTF-8"?>
<!DOCTYPE svg
PUBLIC "-//W3C//DTD SVG 1.1//EN"
       "http://www.w3.org/Graphics/SVG/1.1/DTD/svg11.dtd">
<svg viewBox="-15 71 517 632" width="532px" height="561px" xmlns="http://www.w3.org/2000/svg" version="1.1">
   <rect width="84" height="20" x="139" y="237" style="fill:#007;stroke:black;"/>
   <text width="84" height="20" x="144" y="251" style="fill:#fff;" font-family="Arial" font-size="16px"> cours</text>
   <rect width="84" height="20" x="139" y="257" style="fill:#aea;stroke:black;"/>
   <text width="84" height="20" x="144" y="271" style="fill:black;" font-family="Arial" font-size="16px">idC</text>
   <rect width="84" height="20" x="139" y="277" style="fill:none;stroke:black;"/>
   <text width="84" height="20" x="144" y="291" style="fill:black;" font-family="Arial" font-size="16px">nomCours</text>
   <rect width="84" height="20" x="139" y="297" style="fill:none;stroke:black;"/>
   <text width="84" height="20" x="144" y="311" style="fill:black;" font-family="Arial" font-size="16px">duree</text>
   <rect width="84" height="20" x="139" y="317" style="fill:none;stroke:black;"/>
   <text width="84" height="20" x="144" y="331" style="fill:black;" font-family="Arial" font-size="16px">optionC</text>
   <rect width="115" height="20" x="248" y="417" style="fill:#007;stroke:black;"/>
   <text width="115" height="20" x="253" y="431" style="fill:#fff;" font-family="Arial" font-size="16px"> enregistrement</text>
   <rect width="115" height="20" x="248" y="437" style="fill:#aea;stroke:black;"/>
   <text width="115" height="20" x="253" y="451" style="fill:black;" font-family="Arial" font-size="16px">idE</text>
   <rect width="115" height="20" x="248" y="457" style="fill:none;stroke:black;"/>
   <text width="115" height="20" x="253" y="471" style="fill:black;" font-family="Arial" font-size="16px">prenom</text>
   <rect width="115" height="20" x="248" y="477" style="fill:none;stroke:black;"/>
   <text width="115" height="20" x="253" y="491" style="fill:black;" font-family="Arial" font-size="16px">nom</text>
   <rect width="115" height="20" x="248" y="497" style="fill:none;stroke:black;"/>
   <text width="115" height="20" x="253" y="511" style="fill:black;" font-family="Arial" font-size="16px">nic</text>
   <rect width="115" height="20" x="248" y="517" style="fill:none;stroke:black;"/>
   <text width="115" height="20" x="253" y="531" style="fill:black;" font-family="Arial" font-size="16px">sexe</text>
   <rect width="115" height="20" x="248" y="537" style="fill:none;stroke:black;"/>
   <text width="115" height="20" x="253" y="551" style="fill:black;" font-family="Arial" font-size="16px">cours</text>
   <rect width="115" height="20" x="248" y="557" style="fill:none;stroke:black;"/>
   <text width="115" height="20" x="253" y="571" style="fill:black;" font-family="Arial" font-size="16px">groupe</text>
   <rect width="115" height="20" x="248" y="577" style="fill:none;stroke:black;"/>
   <text width="115" height="20" x="253" y="591" style="fill:black;" font-family="Arial" font-size="16px">telephone</text>
   <rect width="115" height="20" x="248" y="597" style="fill:none;stroke:black;"/>
   <text width="115" height="20" x="253" y="611" style="fill:black;" font-family="Arial" font-size="16px">adresse</text>
   <rect width="56" height="20" x="446" y="86" style="fill:#007;stroke:black;"/>
   <text width="56" height="20" x="451" y="100" style="fill:#fff;" font-family="Arial" font-size="16px"> groupe</text>
   <rect width="56" height="20" x="446" y="106" style="fill:#aea;stroke:black;"/>
   <text width="56" height="20" x="451" y="120" style="fill:black;" font-family="Arial" font-size="16px">idG</text>
   <rect width="56" height="20" x="446" y="126" style="fill:none;stroke:black;"/>
   <text width="56" height="20" x="451" y="140" style="fill:black;" font-family="Arial" font-size="16px">GNom</text>
   <rect width="56" height="20" x="446" y="146" style="fill:none;stroke:black;"/>
   <text width="56" height="20" x="451" y="160" style="fill:black;" font-family="Arial" font-size="16px">annee</text>
   <rect width="97" height="20" x="0" y="446" style="fill:#007;stroke:black;"/>
   <text width="97" height="20" x="5" y="460" style="fill:#fff;" font-family="Arial" font-size="16px"> utilisateur</text>
   <rect width="97" height="20" x="0" y="466" style="fill:#aea;stroke:black;"/>
   <text width="97" height="20" x="5" y="480" style="fill:black;" font-family="Arial" font-size="16px">id</text>
   <rect width="97" height="20" x="0" y="486" style="fill:none;stroke:black;"/>
   <text width="97" height="20" x="5" y="500" style="fill:black;" font-family="Arial" font-size="16px">nom</text>
   <rect width="97" height="20" x="0" y="506" style="fill:none;stroke:black;"/>
   <text width="97" height="20" x="5" y="520" style="fill:black;" font-family="Arial" font-size="16px">prenom</text>
   <rect width="97" height="20" x="0" y="526" style="fill:none;stroke:black;"/>
   <text width="97" height="20" x="5" y="540" style="fill:black;" font-family="Arial" font-size="16px">motdepasse</text>
   <rect width="97" height="20" x="0" y="546" style="fill:none;stroke:black;"/>
   <text width="97" height="20" x="5" y="560" style="fill:black;" font-family="Arial" font-size="16px">utype</text>
   <rect width="97" height="20" x="0" y="566" style="fill:none;stroke:black;"/>
   <text width="97" height="20" x="5" y="580" style="fill:black;" font-family="Arial" font-size="16px">Username</text>
</svg>
